# xmcd
#
# Track frame offsets: 
#        150
#        15162
#        30781
#        44395
#
# Disc length: 732 seconds
#
# Revision: 0
# Processed by: cddbd v1.5.2PL0 Copyright (c) Steve Scherf et al.
# Submitted via: ExactAudioCopyFreeDBPlugin 1.0
#
DISCID=1a02da04
DTITLE=クリープハイプ / 愛の点滅
DYEAR=2015
DGENRE=
TTITLE0=愛の点滅
TTITLE1=クリープ
TTITLE2=すぐに
TTITLE3=空色申告
EXTD=
EXTT0=
EXTT1=
EXTT2=
EXTT3=
PLAYORDER=
